<svg width="960" height="620" viewBox="0 0 960 620" fill="none" xmlns="http://www.w3.org/2000/svg">
  <defs>
    <linearGradient id="bg" x1="0" y1="0" x2="0" y2="1">
      <stop offset="0" stop-color="#FFF8E1"/>
      <stop offset="1" stop-color="#FFFFFF"/>
    </linearGradient>
    <linearGradient id="yellow" x1="0" y1="0" x2="1" y2="1">
      <stop offset="0" stop-color="#FFD84D"/>
      <stop offset="1" stop-color="#FFC107"/>
    </linearGradient>
  </defs>

  <rect width="960" height="620" rx="28" fill="url(#bg)"/>

  <ellipse cx="170" cy="515" rx="85" ry="45" fill="#DCE775" opacity="0.85"/>
  <ellipse cx="790" cy="520" rx="95" ry="50" fill="#DCE775" opacity="0.9"/>
  <rect x="40" y="520" width="880" height="8" rx="4" fill="#7CB342"/>

  <circle cx="285" cy="470" r="55" fill="#212121"/>
  <circle cx="285" cy="470" r="24" fill="#616161"/>
  <circle cx="545" cy="470" r="55" fill="#212121"/>
  <circle cx="545" cy="470" r="24" fill="#616161"/>

  <rect x="220" y="365" width="390" height="92" rx="30" fill="url(#yellow)"/>
  <rect x="252" y="335" width="170" height="34" rx="16" fill="#212121"/>
  <rect x="425" y="335" width="88" height="20" rx="10" fill="#424242"/>
  <rect x="510" y="300" width="18" height="48" rx="8" fill="#212121"/>
  <circle cx="519" cy="292" r="13" fill="#212121"/>

  <rect x="490" y="212" width="185" height="155" rx="22" fill="url(#yellow)"/>
  <rect x="503" y="225" width="159" height="129" rx="14" fill="#F5F5F5" opacity="0.16"/>

  <circle cx="455" cy="178" r="35" fill="#F5D7B5"/>
  <rect x="430" y="212" width="90" height="112" rx="24" fill="url(#yellow)"/>
  <rect x="430" y="212" width="90" height="30" rx="14" fill="#212121"/>

  <rect x="380" y="250" width="68" height="30" rx="15" transform="rotate(-20 380 250)" fill="#F5D7B5"/>
  <rect x="502" y="250" width="72" height="30" rx="15" transform="rotate(18 502 250)" fill="#F5D7B5"/>

  <rect x="430" y="320" width="35" height="120" rx="16" fill="#111"/>
  <rect x="475" y="320" width="35" height="120" rx="16" fill="#111"/>
  <rect x="420" y="430" width="50" height="20" rx="8" fill="#111"/>
  <rect x="480" y="430" width="50" height="20" rx="8" fill="#111"/>

  <text x="455" y="231" text-anchor="middle" font-family="Poppins, Arial" font-size="12" font-weight="700" fill="#FFC107">blinkit</text>
</svg>
